<svg width="147" height="30" viewBox="0 0 147 30" fill="none" xmlns="http://www.w3.org/2000/svg">
<path fill-rule="evenodd" clip-rule="evenodd" d="M0 24.5547V1.5523H9.46441C10.91 1.5523 12.1859 1.84274 13.2922 2.42278C14.3985 3.00366 15.264 3.81953 15.8879 4.87122C16.5127 5.92291 16.8246 7.17071 16.8246 8.6171V9.07717C16.8246 10.5012 16.5011 11.7441 15.8548 12.8065C15.2086 13.869 14.3323 14.6906 13.226 15.2715C12.1197 15.8515 10.8661 16.142 9.46359 16.142H4.33751V24.5539H0V24.5547ZM115.387 0H138.459C142.924 0 146.576 3.65238 146.576 8.11815V21.7265C146.576 26.1914 142.924 29.8446 138.459 29.8446H115.387C110.922 29.8446 107.269 26.1914 107.269 21.7265V8.11815C107.269 3.65321 110.923 0 115.387 0ZM118.924 24.5547C116.596 24.5547 114.743 23.9151 113.367 22.6358C111.991 21.3566 111.302 19.5263 111.302 17.1448V12.6989C111.302 10.3175 111.991 8.48719 113.367 7.20795C114.743 5.92871 116.596 5.28991 118.924 5.28991C121.253 5.28991 123.105 5.92953 124.481 7.20795C125.857 8.48719 126.546 10.3175 126.546 12.6989V17.1448C126.546 19.5271 125.858 21.3574 124.481 22.6358C123.105 23.9151 121.253 24.5547 118.924 24.5547ZM118.924 21.4319C120.23 21.4319 121.244 21.0529 121.967 20.2941C122.691 19.5354 123.052 18.5209 123.052 17.2508V12.593C123.052 11.3229 122.691 10.3084 121.967 9.54964C121.243 8.79087 120.23 8.41189 118.924 8.41189C117.637 8.41189 116.626 8.79087 115.894 9.54964C115.162 10.3084 114.796 11.3229 114.796 12.593V17.2508C114.796 18.5209 115.162 19.5354 115.894 20.2941C116.626 21.0529 117.637 21.4319 118.924 21.4319ZM135.53 24.5547C134.101 24.5547 132.839 24.299 131.746 23.7868C130.652 23.2754 129.796 22.5431 129.179 21.5907C128.561 20.6383 128.253 19.4915 128.253 18.1502V17.4096H131.693V18.1502C131.693 19.2615 132.037 20.0955 132.724 20.6516C133.412 21.2076 134.348 21.4848 135.529 21.4848C136.729 21.4848 137.625 21.2465 138.215 20.7707C138.806 20.2941 139.102 19.6859 139.102 18.9446C139.102 18.4332 138.956 18.0186 138.666 17.7009C138.374 17.3831 137.951 17.1233 137.395 16.9206C136.839 16.717 136.165 16.5276 135.371 16.3513L134.762 16.2189C133.492 15.9368 132.403 15.5793 131.494 15.1474C130.585 14.7154 129.889 14.1461 129.404 13.4403C128.918 12.7345 128.676 11.8177 128.676 10.6882C128.676 9.55874 128.945 8.59311 129.483 7.79048C130.021 6.98785 130.78 6.37057 131.759 5.93781C132.738 5.50505 133.889 5.28991 135.213 5.28991C136.536 5.28991 137.714 5.51498 138.746 5.96429C139.778 6.41442 140.589 7.08466 141.18 7.97583C141.771 8.86699 142.066 9.9824 142.066 11.3237V12.1172H138.626V11.3237C138.626 10.6179 138.489 10.0486 138.216 9.61667C137.942 9.18391 137.55 8.86699 137.039 8.66344C136.527 8.46071 135.918 8.35894 135.213 8.35894C134.154 8.35894 133.374 8.55753 132.871 8.95388C132.368 9.35105 132.117 9.89386 132.117 10.5815C132.117 11.0399 132.236 11.4288 132.475 11.7457C132.713 12.0634 133.069 12.3274 133.546 12.5401C134.023 12.7519 134.631 12.9372 135.372 13.0961L135.981 13.2285C137.304 13.5107 138.455 13.8723 139.435 14.3133C140.414 14.7543 141.177 15.3369 141.724 16.06C142.271 16.7841 142.544 17.71 142.544 18.8386C142.544 19.9681 142.257 20.9602 141.683 21.8158C141.11 22.6714 140.298 23.3416 139.249 23.8265C138.199 24.3114 136.959 24.5547 135.531 24.5547H135.53ZM100.323 6.51041V2.35742H104.464V6.51041H100.323ZM100.323 24.5547V7.93859H104.464V24.5547H100.323ZM65.296 24.5547C63.675 24.5547 62.2452 24.2096 61.0073 23.5195C59.7695 22.8294 58.8055 21.8547 58.1154 20.5945C57.4253 19.3343 57.0802 17.9822 57.0802 16.2727V15.878C57.0802 14.1693 57.4203 12.5533 58.0988 11.2939C58.7782 10.0345 59.7314 9.05896 60.9577 8.36887C62.1848 7.67877 63.6088 7.33372 65.2298 7.33372C66.8293 7.33372 68.2202 7.68953 69.4035 8.40196C70.5868 9.11357 71.5069 10.0999 72.1639 11.3593C72.8209 12.6187 73.1494 14.2132 73.1494 15.878V17.2913H61.2862C61.33 18.4092 61.7462 19.0256 62.5348 19.7265C63.3143 20.4199 64.2658 20.7707 65.3887 20.7782H65.4268L65.5401 20.7774V20.7782L66.3022 20.779C68.6034 20.779 67.9604 20.7774 70.1606 20.7741V24.5489C67.6402 24.5522 67.9778 24.5547 65.392 24.5547H65.3887L65.2952 24.5555L65.296 24.5547ZM61.3201 14.2032H68.9443C68.7457 12.0767 67.2778 10.9497 65.1976 10.9497C63.0396 10.9497 61.6693 12.0568 61.3201 14.2032ZM98.894 7.95928C97.1216 7.95928 95.273 7.95762 93.5569 7.95762C92.2859 7.95762 91.1746 8.28198 90.2214 8.86286C89.2682 9.4429 88.5293 10.243 88.003 11.2616C87.4767 12.2802 87.2144 13.4693 87.2144 14.8271V24.5547H91.355V15.4593C91.355 14.233 91.6562 13.2451 92.2586 12.6319C92.7418 12.1396 93.3889 11.8376 94.2031 11.7407L94.2056 11.7391H98.894V7.9601V7.95928ZM86.2579 7.95928C84.4855 7.95928 82.637 7.95762 80.9208 7.95762C79.6499 7.95762 78.5386 8.28198 77.5854 8.86286C76.6321 9.4429 75.8924 10.243 75.367 11.2616C74.8407 12.2802 74.5784 13.4693 74.5784 14.8271V24.5547H78.719V15.4593C78.719 14.233 79.0202 13.2451 79.6226 12.6319C80.1066 12.1396 80.7529 11.8376 81.5671 11.7407L81.5695 11.7391H86.2579V7.9601V7.95928ZM56.6342 24.553C54.8627 24.553 56.8527 24.5547 55.1357 24.5547C53.8648 24.5547 52.7535 24.2303 51.8003 23.6495C50.847 23.0694 50.1073 22.2693 49.5819 21.2507C49.0564 20.2321 48.7933 19.043 48.7933 17.6852V7.95762H48.8074V3.56302H52.9479V8.01389H56.2793V11.7234H52.9479V15.7224H52.933V17.053C52.933 18.2801 53.2342 19.2673 53.8366 19.8804C54.0286 20.0757 54.2462 20.242 54.4895 20.376C55.1581 20.7451 55.9069 20.7724 56.6334 20.7741V24.553H56.6342ZM35.6856 7.95928C37.4572 7.95928 39.3065 7.95762 41.0227 7.95762C42.2936 7.95762 43.4049 8.28198 44.3581 8.86286C45.3114 9.4429 46.0503 10.243 46.5765 11.2616C47.1028 12.2802 47.3651 13.4693 47.3651 14.8271V24.5547H43.2245V15.4593C43.2245 14.233 42.9233 13.2451 42.3209 12.6319C41.8377 12.1396 41.1906 11.8376 40.3764 11.7407L40.3739 11.7391H35.6856V24.5555H31.3481V11.7374H35.6856V7.9601V7.95928ZM21.244 24.5547C17.9971 24.5547 15.1316 22.8692 15.1316 19.3293C15.1316 15.7208 18.2545 14.3158 21.441 14.3158H25.7247C25.7247 12.4912 24.3991 11.7358 22.9304 11.7358L18.2396 11.7341V7.95514C20.0111 7.95514 21.8605 7.95349 23.5766 7.95349C24.8468 7.95349 25.9589 8.27785 26.9121 8.85789C27.8653 9.43876 28.6042 10.2381 29.1305 11.2575C29.6022 12.1718 29.8628 12.9389 29.9108 14.1263L29.9191 14.4109V24.1848H29.9141V24.5423C27.1703 24.5456 24.3735 24.5481 21.5403 24.5506C21.4426 24.553 21.3442 24.5539 21.2432 24.5539L21.244 24.5547ZM25.8422 17.2954V17.293L21.604 17.2855C18.5581 17.403 18.6458 20.9255 21.604 21.1572C23.0173 21.1572 24.4297 21.1472 25.8422 21.1448V17.2954ZM4.33834 12.1991H9.03745C10.0668 12.1991 10.8992 11.9145 11.5347 11.3452C12.1702 10.7751 12.4879 9.99812 12.4879 9.0118V8.6833C12.4879 7.69697 12.1702 6.91999 11.5347 6.34988C10.8992 5.77976 10.0668 5.49512 9.03745 5.49512H4.33834V12.1983V12.1991Z" fill="white"/>
</svg>
