<svg width="404" height="510" viewBox="0 0 404 510" fill="none" xmlns="http://www.w3.org/2000/svg">
<path opacity="0.504959" d="M203.153 0.0180664C203.153 0.0180664 201.798 72.6964 200.443 108.81M200.443 108.81C189.605 142.666 154.379 145.826 133.153 145.826C111.927 145.826 106.96 167.043 106.96 190.517C106.96 213.991 106.96 234.755 106.96 250.104M200.443 108.81C206.767 130.929 222.572 145.826 253.283 145.826C291.217 145.826 296.637 166.14 296.637 190.517C296.637 224.824 296.637 228.435 296.637 254.618M106.96 250.104C103.348 265.001 74.4447 274.176 40.122 270.869C5.79939 267.562 -6.8453 332.262 5.79968 347.61M106.96 250.104C111.024 260.487 125.259 269.515 151.219 270.869C203.153 273.577 193.218 298.405 203.153 317.365M296.637 254.618C283.54 276.737 258.554 267.638 234.314 270.869C207.218 274.481 213.54 298.857 203.153 317.365M296.637 254.618C304.928 270.246 344.508 270.869 359.41 270.869C374.314 270.869 386.959 274.029 395.991 289.829C405.023 305.629 401.862 326.394 401.862 347.158M203.153 317.365C203.153 348.569 203.153 354.326 203.153 385.53M203.153 385.53C190.508 417.128 149.984 417.752 132.25 421.191C101.993 427.06 101.54 496.127 101.54 509.218M203.153 385.53C203.153 385.53 219.411 421.191 268.636 421.191C317.863 421.191 303.863 509.218 303.863 509.218" stroke="url(#paint0_linear_1371_11641)" stroke-width="1.9994"/>
<defs>
<linearGradient id="paint0_linear_1371_11641" x1="0.999756" y1="0.0180664" x2="49513.4" y2="39030.3" gradientUnits="userSpaceOnUse">
<stop stop-color="#E2E8F0"/>
<stop offset="0.5" stop-color="#CBD5E1"/>
<stop offset="1" stop-color="#E2E8F0"/>
</linearGradient>
</defs>
</svg>
