<svg width="142" height="29" viewBox="0 0 142 29" fill="none" xmlns="http://www.w3.org/2000/svg">
<path fill-rule="evenodd" clip-rule="evenodd" d="M0 23.7812V1.50341H9.14503C10.5418 1.50341 11.7747 1.78469 12.8436 2.34647C13.9126 2.90904 14.7489 3.69921 15.3517 4.71777C15.9555 5.73634 16.2568 6.94484 16.2568 8.34567V8.79123C16.2568 10.1704 15.9442 11.3741 15.3198 12.4031C14.6954 13.4321 13.8486 14.2278 12.7797 14.7904C11.7107 15.3522 10.4994 15.6335 9.14423 15.6335H4.19114V23.7804L0 23.7812ZM111.493 0H133.787C138.101 0 141.63 3.53733 141.63 7.86242V21.0421C141.63 25.3664 138.101 28.9045 133.787 28.9045H111.493C107.179 28.9045 103.649 25.3664 103.649 21.0421V7.86242C103.649 3.53813 107.18 0 111.493 0ZM114.911 23.7812C112.661 23.7812 110.871 23.1618 109.541 21.9228C108.212 20.6839 107.546 18.9112 107.546 16.6048V12.2989C107.546 9.99248 108.212 8.21985 109.541 6.98089C110.871 5.74195 112.661 5.12328 114.911 5.12328C117.161 5.12328 118.951 5.74275 120.28 6.98089C121.61 8.21985 122.276 9.99248 122.276 12.2989V16.6048C122.276 18.912 121.611 20.6846 120.28 21.9228C118.951 23.1618 117.161 23.7812 114.911 23.7812ZM114.911 20.7568C116.173 20.7568 117.152 20.3897 117.852 19.6548C118.551 18.92 118.899 17.9375 118.899 16.7074V12.1963C118.899 10.9662 118.551 9.98367 117.852 9.24883C117.152 8.51395 116.173 8.14692 114.911 8.14692C113.667 8.14692 112.69 8.51395 111.983 9.24883C111.276 9.98367 110.922 10.9662 110.922 12.1963V16.7074C110.922 17.9375 111.276 18.92 111.983 19.6548C112.69 20.3897 113.667 20.7568 114.911 20.7568ZM130.956 23.7812C129.576 23.7812 128.356 23.5336 127.3 23.0375C126.243 22.5423 125.416 21.8331 124.82 20.9107C124.223 19.9883 123.925 18.8775 123.925 17.5785V16.8612H127.249V17.5785C127.249 18.6547 127.581 19.4626 128.245 20.0011C128.91 20.5396 129.814 20.808 130.955 20.808C132.115 20.808 132.981 20.5772 133.551 20.1165C134.122 19.6548 134.408 19.0659 134.408 18.3478C134.408 17.8525 134.267 17.451 133.987 17.1433C133.704 16.8356 133.296 16.5839 132.758 16.3876C132.221 16.1905 131.57 16.007 130.803 15.8362L130.214 15.708C128.987 15.4348 127.935 15.0885 127.057 14.6702C126.178 14.2519 125.506 13.7006 125.037 13.0169C124.568 12.3333 124.334 11.4454 124.334 10.3515C124.334 9.25764 124.594 8.32242 125.113 7.54507C125.633 6.76773 126.367 6.16989 127.313 5.75076C128.259 5.33164 129.371 5.12328 130.65 5.12328C131.928 5.12328 133.067 5.34125 134.064 5.77641C135.061 6.21237 135.845 6.86149 136.416 7.72459C136.987 8.58768 137.272 9.66796 137.272 10.967V11.7355H133.948V10.967C133.948 10.2834 133.816 9.73205 133.552 9.31374C133.287 8.89461 132.908 8.58768 132.414 8.39054C131.92 8.1942 131.331 8.09563 130.65 8.09563C129.627 8.09563 128.873 8.28796 128.387 8.67183C127.901 9.0565 127.659 9.58221 127.659 10.2482C127.659 10.6921 127.774 11.0688 128.005 11.3757C128.234 11.6835 128.578 11.9391 129.039 12.1451C129.5 12.3502 130.088 12.5298 130.804 12.6836L131.392 12.8118C132.671 13.0851 133.783 13.4353 134.73 13.8624C135.676 14.2895 136.413 14.8538 136.941 15.5542C137.47 16.2554 137.734 17.1521 137.734 18.2453C137.734 19.3391 137.456 20.2999 136.902 21.1286C136.348 21.9572 135.563 22.6064 134.55 23.0759C133.535 23.5456 132.337 23.7812 130.957 23.7812H130.956ZM96.9375 6.30533V2.28316H100.939V6.30533H96.9375ZM96.9375 23.7812V7.68853H100.939V23.7812H96.9375ZM63.0925 23.7812C61.5262 23.7812 60.1447 23.4471 58.9485 22.7787C57.7525 22.1104 56.821 21.1663 56.1542 19.9458C55.4874 18.7253 55.154 17.4157 55.154 15.7601V15.3778C55.154 13.723 55.4826 12.1579 56.1382 10.9381C56.7947 9.7184 57.7157 8.77361 58.9006 8.10525C60.0863 7.43688 61.4623 7.10271 63.0285 7.10271C64.5741 7.10271 65.9181 7.4473 67.0614 8.1373C68.2048 8.8265 69.0938 9.78174 69.7286 11.0015C70.3635 12.2212 70.6809 13.7655 70.6809 15.3778V16.7466H59.218C59.2603 17.8293 59.6626 18.4264 60.4245 19.1051C61.1777 19.7767 62.0971 20.1165 63.1821 20.1237H63.2189L63.3284 20.1229L64.0648 20.1244C66.2883 20.1244 65.667 20.1229 67.7929 20.1197V23.7756C65.3576 23.7788 65.6838 23.7812 63.1853 23.7812H63.1821L63.0917 23.782L63.0925 23.7812ZM59.2508 13.7559H66.6177C66.4258 11.6963 65.0074 10.6048 62.9974 10.6048C60.9123 10.6048 59.5882 11.677 59.2508 13.7559ZM95.5567 7.70856C93.8441 7.70856 92.0579 7.70696 90.3997 7.70696C89.1716 7.70696 88.0978 8.0211 87.1768 8.58367C86.2557 9.14545 85.5418 9.92043 85.0332 10.9069C84.5248 11.8935 84.2712 13.045 84.2712 14.3601V23.7812H88.2721V14.9723C88.2721 13.7846 88.5632 12.8279 89.1452 12.234C89.6121 11.7572 90.2374 11.4647 91.0241 11.371L91.0265 11.3693H95.5567V7.70856ZM83.347 7.70856C81.6344 7.70856 79.8483 7.70696 78.19 7.70696C76.962 7.70696 75.8882 8.0211 74.9672 8.58367C74.0461 9.14545 73.3313 9.92043 72.8236 10.9069C72.3151 11.8935 72.0617 13.045 72.0617 14.3601V23.7812H76.0625V14.9723C76.0625 13.7846 76.3536 12.8279 76.9356 12.234C77.4033 11.7572 78.0278 11.4647 78.8145 11.371L78.8169 11.3693H83.347V7.70856ZM54.723 23.7796C53.0113 23.7796 54.9341 23.7812 53.2751 23.7812C52.0471 23.7812 50.9733 23.467 50.0522 22.9045C49.1311 22.3427 48.4164 21.5678 47.9087 20.5813C47.4009 19.5948 47.1467 18.4431 47.1467 17.1281V7.70696H47.1603V3.45078H51.1611V7.76145H54.3801V11.3541H51.1611V15.2272H51.1467V16.5158C51.1467 17.7043 51.4377 18.6604 52.0198 19.2542C52.2053 19.4433 52.4156 19.6044 52.6507 19.7342C53.2967 20.0916 54.0203 20.1181 54.7222 20.1197L54.723 23.7796ZM34.4813 7.70856C36.1932 7.70856 37.9801 7.70696 39.6383 7.70696C40.8664 7.70696 41.9401 8.0211 42.8612 8.58367C43.7823 9.14545 44.4963 9.92043 45.0047 10.9069C45.5133 11.8935 45.7667 13.045 45.7667 14.3601V23.7812H41.7658V14.9723C41.7658 13.7846 41.4748 12.8279 40.8927 12.234C40.4258 11.7572 39.8006 11.4647 39.0138 11.371L39.0115 11.3693H34.4813V23.782H30.2902V11.3677H34.4813V7.70856ZM20.5272 23.7812C17.3898 23.7812 14.6211 22.1488 14.6211 18.7204C14.6211 15.2256 17.6385 13.8648 20.7174 13.8648H24.8566C24.8566 12.0978 23.5757 11.3661 22.1566 11.3661L17.6241 11.3645V7.70455C19.3358 7.70455 21.1228 7.70295 22.781 7.70295C24.0083 7.70295 25.0829 8.01709 26.0039 8.57887C26.9249 9.14144 27.639 9.91559 28.1475 10.9029C28.6032 11.7885 28.855 12.5313 28.9014 13.6813L28.9094 13.9569V23.423H28.9046V23.7692C26.2534 23.7724 23.551 23.7748 20.8134 23.7772C20.719 23.7796 20.6239 23.7804 20.5263 23.7804L20.5272 23.7812ZM24.9701 16.7507V16.7483L20.8749 16.741C17.9318 16.8548 18.0166 20.2663 20.8749 20.4907C22.2406 20.4907 23.6053 20.481 24.9701 20.4787V16.7507ZM4.19194 11.8149H8.73247C9.72708 11.8149 10.5314 11.5392 11.1454 10.9878C11.7595 10.4357 12.0665 9.68318 12.0665 8.72792V8.40977C12.0665 7.45452 11.7595 6.70202 11.1454 6.14985C10.5314 5.5977 9.72708 5.32202 8.73247 5.32202H4.19194V11.8149Z" fill="black"/>
</svg>
